# xmcd
#
# Track frame offsets:
#	150
#	13117
#	29775
#	49187
#	66895
#	87060
#	107772
#	124242
#	141765
#	154712
#	171355
#	190792
#	208482
#	228627
#	249340
#	265810
#
# Disc length: 3778 seconds
#
# Revision: 1
# Processed by: cddbd v1.5.1PL2 Copyright (c) Steve Scherf et al.
# Submitted via: audiograbber 1.83.01
#
DISCID=e90ec010
DTITLE=Soundchoice - SC3232
DYEAR=1900
DGENRE=Karaoke Country
TTITLE0=Eric Heatherly - Wrong Five O'Clock
TTITLE1=Collin Raye - She'S All That
TTITLE2=Jessica Andrews - Who I Am
TTITLE3=Mindy Mccready - Scream
TTITLE4=Chalee Tennison - Go Back
TTITLE5=Lee Ann Womack - Ashes By Now
TTITLE6=Tim Mcgraw - Things Change
TTITLE7=Don Henley - For My Wedding (Radio Version)
TTITLE8=Eric Heatherly - Wrong Five O'Clock
TTITLE9=Collin Raye - She'S All That
TTITLE10=Jessica Andrews - Who I Am
TTITLE11=Mindy Mccready - Scream
TTITLE12=Chalee Tennison - Go Back
TTITLE13=Lee Ann Womack - Ashes By Now
TTITLE14=Tim Mcgraw - Things Change
TTITLE15=Don Henley - For My Wedding (Radio Version)
EXTD=Tracks 9-16 Demos
EXTT0=
EXTT1=
EXTT2=
EXTT3=
EXTT4=
EXTT5=
EXTT6=
EXTT7=
EXTT8=
EXTT9=
EXTT10=
EXTT11=
EXTT12=
EXTT13=
EXTT14=
EXTT15=
PLAYORDER=
